<?xml version="1.0" encoding="utf-8"?>
<!-- Generator: Adobe Illustrator 17.0.0, SVG Export Plug-In . SVG Version: 6.00 Build 0)  -->
<!DOCTYPE svg PUBLIC "-//W3C//DTD SVG 1.1//EN" "http://www.w3.org/Graphics/SVG/1.1/DTD/svg11.dtd">
<svg version="1.1" id="Layer_1" xmlns="http://www.w3.org/2000/svg" xmlns:xlink="http://www.w3.org/1999/xlink" x="0px" y="0px"
	 width="33.973px" height="33px" viewBox="0 0 33.973 33" enable-background="new 0 0 33.973 33" xml:space="preserve">
<rect x="-0.014" y="-0.5" fill="#58595B" width="34" height="34"/>
<g>
	<path fill="#FFFFFF" d="M25.189,5.724H9.392c-1.5,0-2.728,1.227-2.728,2.728v3.821h7.602c0.856-0.608,1.902-0.979,3.045-0.979
		c1.143,0,2.189,0.371,3.045,0.979h7.561V8.451C27.917,6.951,26.69,5.724,25.189,5.724z M25.505,10.176
		c0,0.338-0.278,0.616-0.616,0.616h-1.547c-0.338,0-0.616-0.277-0.616-0.616V8.701c0-0.339,0.277-0.616,0.616-0.616h1.547
		c0.338,0,0.616,0.277,0.616,0.616V10.176z"/>
	<path fill="#FFFFFF" d="M22.482,16.303c0,2.768-2.316,5.011-5.171,5.011c-2.855,0-5.171-2.243-5.171-5.011
		c0-0.788,0.205-1.523,0.539-2.186H6.665v10.132c0,1.5,1.227,2.728,2.728,2.728h15.797c1.5,0,2.728-1.228,2.728-2.728V14.117h-5.974
		C22.278,14.78,22.482,15.515,22.482,16.303z"/>
	<circle fill="#FFFFFF" cx="17.291" cy="16.269" r="2.767"/>
</g>
</svg>
