<?xml version="1.0" encoding="utf-8"?>
<!-- Generator: Adobe Illustrator 17.0.0, SVG Export Plug-In . SVG Version: 6.00 Build 0)  -->
<!DOCTYPE svg PUBLIC "-//W3C//DTD SVG 1.1//EN" "http://www.w3.org/Graphics/SVG/1.1/DTD/svg11.dtd">
<svg version="1.1" xmlns="http://www.w3.org/2000/svg" xmlns:xlink="http://www.w3.org/1999/xlink" x="0px" y="0px" width="30px"
	 height="30px" viewBox="0 0 30 30" enable-background="new 0 0 30 30" xml:space="preserve">
<g id="Dine" display="none">
	<g display="inline">
		<circle fill="#FFFFFF" cx="67.79" cy="36.827" r="5.205"/>
		<g>
			<path d="M70.559,33.993l-0.007,0.09l-0.055,0.563l-0.702-0.054l0.058-0.601l0.007-0.086c-0.126,0.035-0.245,0.096-0.351,0.186
				c-0.262,0.225-0.366,0.566-0.3,0.882l-3.312,3.312c-0.43-0.148-0.926-0.03-1.24,0.336c-0.411,0.479-0.356,1.201,0.123,1.612
				c0.132,0.113,0.282,0.189,0.438,0.233L65.21,40.36l0,0l-0.072-0.729l0.877-0.067l0.068,0.682l0,0l0.009,0.112
				c0.11-0.063,0.212-0.145,0.3-0.247c0.274-0.319,0.34-0.745,0.212-1.116l3.313-3.313c0.269,0.056,0.559-0.008,0.783-0.2
				c0.383-0.329,0.428-0.907,0.099-1.291C70.73,34.109,70.648,34.044,70.559,33.993z"/>
		</g>
		<g>
			<path d="M63.727,35.772c0.078-0.078,0.204-0.078,0.282,0l0.023,0.023l0.666-0.795c0,0,0.781-0.85,1.745-1.22
				c1.175-0.451,1.979-0.583,2.093-0.489c0.114,0.093-0.026,0.244-0.357,0.358c-0.331,0.114-0.706,0.259-1.114,0.618
				c-0.368,0.324-0.428,0.498-0.34,0.714c0.019,0.047,0.155,0.264,0.287,0.432l-0.75,0.75c-0.204-0.184-0.585-0.475-0.828-0.339
				l-0.092,0.047c-0.14,0.091-0.464,0.363-0.683,0.55l0.022,0.022c0.078,0.078,0.078,0.204,0,0.282l-0.173,0.174
				c-0.078,0.078-0.204,0.078-0.282,0l-0.672-0.67c-0.078-0.078-0.078-0.205,0-0.282L63.727,35.772z"/>
			<path d="M67.157,35.574l-0.74,0.74l0.006,0.006l3.263,3.382l0.3,0.308c0.056,0.056,0.13,0.084,0.202,0.084
				c0.069,0,0.137-0.025,0.188-0.077l0.517-0.518c0.106-0.106,0.102-0.28-0.008-0.389l-0.309-0.297l-3.413-3.234L67.157,35.574z"/>
		</g>
	</g>
	<g display="inline">
		<path id="path3063_5_" sodipodi:nodetypes="csscccssccc" inkscape:connector-curvature="0" d="M13.103,13.742
			c-0.162-0.482-0.819-0.851-0.848-1.292c-0.336-5.064,0.098-9.031,1.343-11.54c0.371-0.749,1.533-1.211,1.518,0.114
			c-0.208,4.175-0.264,8.396-0.159,12.665c0.317,0.258,0.28,0.689-0.007,0.948c0.08,4.713,0.341,9.343,0.629,13.963
			c0.111,1.782-3.175,1.511-3.041-0.193c0.355-4.476,0.761-9.007,0.778-13.76C12.876,14.403,12.839,14.096,13.103,13.742
			L13.103,13.742z"/>
		<path id="path3083_5_" sodipodi:nodetypes="ssccscsccss" inkscape:connector-curvature="0" d="M20.101,2.121
			c-1.929,0-3.492,3.679-3.492,5.44c0,1.057,0.562,2.264,1.431,3.06c0.88,0.779,1.687,1.621,1.709,2.32
			c0.026,5.208-0.708,10.261-1.169,15.366c-0.087,0.958,0.632,1.344,1.522,1.51c0.891-0.166,1.609-0.553,1.523-1.51
			c-0.461-5.104-1.195-10.158-1.169-15.366c0.081-1.108,0.944-1.646,1.654-2.269c0.898-0.795,1.486-2.03,1.486-3.11
			C23.594,5.8,22.031,2.121,20.101,2.121z"/>
		<path id="path3086_5_" sodipodi:nodetypes="ccccccscccccscccccscccsscsscc" inkscape:connector-curvature="0" d="M9.843,2.7
			C9.826,2.458,9.755,2.443,9.677,2.438C9.582,2.442,9.5,2.477,9.502,2.761L9.383,8.475C9.385,8.83,9.297,8.93,9.15,8.92
			C9.003,8.93,8.916,8.83,8.917,8.475L8.799,2.761c-0.006-0.283-0.08-0.319-0.14-0.323c-0.058,0.005-0.14,0.04-0.139,0.323
			L8.402,8.475C8.404,8.83,8.317,8.93,8.169,8.92C8.022,8.93,7.936,8.83,7.936,8.475L7.818,2.761
			c-0.006-0.283-0.08-0.319-0.139-0.323C7.62,2.442,7.539,2.477,7.54,2.761L7.422,8.475C7.423,8.83,7.336,8.93,7.189,8.92
			C7.041,8.93,6.955,8.83,6.956,8.475L6.837,2.761c-0.006-0.283-0.08-0.319-0.176-0.323C6.583,2.443,6.514,2.458,6.495,2.7
			l-0.089,7.419c-0.012,1.572,1.402,1.268,1.41,2.82c0.026,5.207-0.707,10.262-1.169,15.367c-0.086,0.957,0.632,1.343,1.522,1.509
			c0.89-0.166,1.609-0.553,1.522-1.509C9.231,23.201,8.496,18.147,8.524,12.94c0.007-1.552,1.421-1.249,1.409-2.82L9.843,2.7z"/>
	</g>
</g>
<g id="Shop">
	<g>
		<circle fill="#FFFFFF" cx="67.79" cy="36.827" r="5.205"/>
		<g>
			<path d="M70.559,33.993l-0.007,0.09l-0.055,0.563l-0.702-0.054l0.058-0.601l0.007-0.086c-0.126,0.035-0.245,0.096-0.351,0.186
				c-0.262,0.225-0.366,0.566-0.3,0.882l-3.312,3.312c-0.43-0.148-0.926-0.03-1.24,0.336c-0.411,0.479-0.356,1.201,0.123,1.612
				c0.132,0.113,0.282,0.189,0.438,0.233L65.21,40.36l0,0l-0.072-0.729l0.877-0.067l0.068,0.682l0,0l0.009,0.112
				c0.11-0.063,0.212-0.145,0.3-0.247c0.274-0.319,0.34-0.745,0.212-1.116l3.313-3.313c0.269,0.056,0.559-0.008,0.783-0.2
				c0.383-0.329,0.428-0.907,0.099-1.291C70.73,34.109,70.648,34.044,70.559,33.993z"/>
		</g>
		<g>
			<path d="M63.727,35.772c0.078-0.078,0.204-0.078,0.282,0l0.023,0.023l0.666-0.795c0,0,0.781-0.85,1.745-1.22
				c1.175-0.451,1.979-0.583,2.093-0.489c0.114,0.093-0.026,0.244-0.357,0.358c-0.331,0.114-0.706,0.259-1.114,0.618
				c-0.368,0.324-0.428,0.498-0.34,0.714c0.019,0.047,0.155,0.264,0.287,0.432l-0.75,0.75c-0.204-0.184-0.585-0.475-0.828-0.339
				l-0.092,0.047c-0.14,0.091-0.464,0.363-0.683,0.55l0.022,0.022c0.078,0.078,0.078,0.204,0,0.282l-0.173,0.174
				c-0.078,0.078-0.204,0.078-0.282,0l-0.672-0.67c-0.078-0.078-0.078-0.205,0-0.282L63.727,35.772z"/>
			<path d="M67.157,35.574l-0.74,0.74l0.006,0.006l3.263,3.382l0.3,0.308c0.056,0.056,0.13,0.084,0.202,0.084
				c0.069,0,0.137-0.025,0.188-0.077l0.517-0.518c0.106-0.106,0.102-0.28-0.008-0.389l-0.309-0.297l-3.413-3.234L67.157,35.574z"/>
		</g>
	</g>
	<path d="M14.147,23.317c-0.655,0-1.238,0.288-1.645,0.737c-0.359,0.396-0.585,0.916-0.585,1.493c0,1.231,0.999,2.23,2.23,2.23
		c1.231,0,2.229-1,2.229-2.23c0-0.578-0.225-1.098-0.584-1.493C15.384,23.604,14.801,23.317,14.147,23.317z M22.088,23.317
		c-0.655,0-1.238,0.288-1.644,0.737c-0.36,0.396-0.585,0.916-0.585,1.493c0,1.231,0.998,2.23,2.229,2.23c1.231,0,2.23-1,2.23-2.23
		c0-0.578-0.226-1.098-0.585-1.493C23.325,23.604,22.742,23.317,22.088,23.317z M29.41,8.44c-0.247-0.287-0.606-0.452-0.985-0.452
		H9.193C8.725,5.444,8.37,3.521,8.327,3.285c-0.114-0.616-0.65-1.063-1.276-1.063H1.574c-0.717,0-1.298,0.581-1.298,1.298
		c0,0.717,0.58,1.299,1.298,1.299h4.395c1.197,6.499,3.197,17.383,3.311,18.133c0.097,0.634,0.642,1.102,1.283,1.102h0.744
		c0.537-1.02,1.608-1.716,2.838-1.716s2.3,0.696,2.838,1.716h2.263c0.539-1.02,1.609-1.716,2.839-1.716
		c1.231,0,2.301,0.696,2.838,1.716h0.496c0.717,0,1.299-0.581,1.299-1.298c0-0.717-0.581-1.298-1.299-1.298H11.655
		c-0.116-0.65-0.278-1.541-0.467-2.581h15.973c0.641,0,1.187-0.468,1.284-1.102l1.263-8.292C29.766,9.108,29.657,8.727,29.41,8.44z
		 M26.046,16.281H10.715c-0.095-0.513-0.191-1.039-0.289-1.574h15.86L26.046,16.281z M26.682,12.11H9.951
		c-0.095-0.515-0.189-1.024-0.281-1.526h17.244L26.682,12.11z"/>
</g>
<g id="Travel" display="none">
	<g display="inline">
		<circle fill="#FFFFFF" cx="67.79" cy="36.827" r="5.205"/>
		<g>
			<path d="M70.559,33.993l-0.007,0.09l-0.055,0.563l-0.702-0.054l0.058-0.601l0.007-0.086c-0.126,0.035-0.245,0.096-0.351,0.186
				c-0.262,0.225-0.366,0.566-0.3,0.882l-3.312,3.312c-0.43-0.148-0.926-0.03-1.24,0.336c-0.411,0.479-0.356,1.201,0.123,1.612
				c0.132,0.113,0.282,0.189,0.438,0.233L65.21,40.36l0,0l-0.072-0.729l0.877-0.067l0.068,0.682l0,0l0.009,0.112
				c0.11-0.063,0.212-0.145,0.3-0.247c0.274-0.319,0.34-0.745,0.212-1.116l3.313-3.313c0.269,0.056,0.559-0.008,0.783-0.2
				c0.383-0.329,0.428-0.907,0.099-1.291C70.73,34.109,70.648,34.044,70.559,33.993z"/>
		</g>
		<g>
			<path d="M63.727,35.772c0.078-0.078,0.204-0.078,0.282,0l0.023,0.023l0.666-0.795c0,0,0.781-0.85,1.745-1.22
				c1.175-0.451,1.979-0.583,2.093-0.489c0.114,0.093-0.026,0.244-0.357,0.358c-0.331,0.114-0.706,0.259-1.114,0.618
				c-0.368,0.324-0.428,0.498-0.34,0.714c0.019,0.047,0.155,0.264,0.287,0.432l-0.75,0.75c-0.204-0.184-0.585-0.475-0.828-0.339
				l-0.092,0.047c-0.14,0.091-0.464,0.363-0.683,0.55l0.022,0.022c0.078,0.078,0.078,0.204,0,0.282l-0.173,0.174
				c-0.078,0.078-0.204,0.078-0.282,0l-0.672-0.67c-0.078-0.078-0.078-0.205,0-0.282L63.727,35.772z"/>
			<path d="M67.157,35.574l-0.74,0.74l0.006,0.006l3.263,3.382l0.3,0.308c0.056,0.056,0.13,0.084,0.202,0.084
				c0.069,0,0.137-0.025,0.188-0.077l0.517-0.518c0.106-0.106,0.102-0.28-0.008-0.389l-0.309-0.297l-3.413-3.234L67.157,35.574z"/>
		</g>
	</g>
	<path display="inline" d="M24.986,26.59l-1.7,1.7l-5.139-13.321c-2.804,2.536-5.855,5.163-8.84,7.675l0.203,5.861l-1.225,1.224
		l-1.721-4.791l-0.941,0.549l-0.681-0.428l-0.428-0.682l0.549-0.939l-4.791-1.722l1.224-1.227l5.86,0.204
		c2.512-2.985,5.14-6.034,7.676-8.838L1.71,6.712l1.7-1.698l16.173,1.998c4.698-4.757,8.525-7.742,9.836-6.432
		c1.311,1.311-1.675,5.139-6.432,9.837L24.986,26.59L24.986,26.59z"/>
</g>
<g id="Entertainment" display="none">
	<g display="inline">
		<path fill="#010101" d="M15.375,8.502c-0.034-0.145-0.119-0.26-0.25-0.316c-0.754-0.323-3.632-1.342-7.971-0.25
			c-4.339,1.091-6.391,3.351-6.902,3.994c-0.088,0.111-0.109,0.252-0.07,0.397c0.372,1.367,2.377,8.629,3.662,11.03
			c1.422,2.656,5.823,5.178,8.335,4.546c2.513-0.631,5.196-4.937,5.192-7.948C17.367,17.229,15.695,9.883,15.375,8.502z
			 M2.575,15.594c0,0,1.908-2.444,2.735-2.652c0.827-0.208,2.66,1.043,2.66,1.043s-1.645-0.682-2.557-0.453
			C4.5,13.762,2.575,15.594,2.575,15.594z M4.35,17.613c-0.103-0.409,0.632-1.374,1.548-1.605c0.916-0.231,1.69,0.116,1.793,0.524
			C7.278,17.202,5.558,17.378,4.35,17.613z M11.177,23.965C8.31,24.55,6.337,21.567,5.97,21.007
			c3.524,2.389,6.433,0.117,7.793-0.512C13.76,22.208,12.347,23.727,11.177,23.965z M10.077,19.548
			c0.484-0.121,0.626-0.479,0.647-0.393c0.021,0.084-0.087,0.577-0.57,0.698c-0.484,0.122-0.812-0.262-0.835-0.346
			C9.299,19.423,9.593,19.67,10.077,19.548z M10.751,15.763c-0.103-0.41,0.416-1.08,1.332-1.311c0.916-0.231,2.02,0.272,2.123,0.681
			C13.03,15.498,11.432,16.157,10.751,15.763z M11.338,12.042C10.426,12.272,9.3,13.65,9.3,13.65s1.023-1.969,1.85-2.177
			c0.826-0.208,3.663,1.041,3.663,1.041S12.251,11.812,11.338,12.042z"/>
		<path fill="#010101" d="M29.744,5.848c-0.494-0.657-2.479-2.977-6.782-4.197c-4.306-1.22-7.212-0.287-7.976,0.014
			c-0.132,0.052-0.221,0.164-0.259,0.309c-0.167,0.636-0.663,2.544-1.155,4.681c-0.018,0.07,0.037,0.112,0.067,0.117
			c1.046,0.182,1.765,0.451,2.107,0.597c0.266,0.114,0.463,0.339,0.553,0.623c0.003,0.014,0.024,0.037,0.05,0.031
			c1.782-0.413,2.491,0.542,2.823,1.273c0.025,0.057,0.048,0.156-0.062,0.118c-0.853-0.307-1.671-0.312-2.681-1.064
			c-0.017-0.013-0.045-0.015-0.037,0.025c0.248,1.083,0.813,3.611,1.27,6.1c0.004,0.022,0.042,0.088,0.057,0.1
			c0.448,0.355,0.889,0.789,1.319,0.911c0.751,0.212,2.028-0.363,2.722,0.018c0.695,0.382,0.212,2.134-0.754,2.253
			c-0.966,0.118-0.814-0.559-2.332-0.989c-0.225-0.064-0.422-0.103-0.599-0.126c-0.016-0.002-0.046,0-0.041,0.037
			c0.18,1.183,0.298,2.239,0.298,2.975c0.001,0.577-0.089,1.209-0.262,1.863c-0.011,0.05,0.033,0.064,0.058,0.066
			c2.555,0.115,6.329-2.061,7.682-4.418c1.356-2.362,3.577-9.561,3.988-10.917C29.844,6.103,29.828,5.961,29.744,5.848z
			 M15.825,5.705c-0.062,0.009-0.07-0.011-0.013-0.03c2.966-0.995,2.697,1.608,4.456,2.722c0.068,0.043,0.055,0.069-0.018,0.04
			C18.138,7.608,18.671,5.283,15.825,5.705z M20.453,13.153c-0.024,0.084-0.363,0.457-0.843,0.321
			c-0.481-0.136-0.573-0.632-0.55-0.715c0.024-0.083,0.155,0.277,0.635,0.413C20.175,13.308,20.476,13.07,20.453,13.153z
			 M25.355,10.738c-1.479,0.231-2.221-0.255-3.189-0.459c-0.114-0.025-0.043-0.097,0.009-0.133c0.687-0.463,1.842-0.918,3.197,0.527
			C25.389,10.691,25.417,10.727,25.355,10.738z M26.909,8.848c-2.2-1.854-2.968,0.405-5.2,0.003
			c-0.077-0.014-0.076-0.044,0.005-0.044c2.083-0.025,3.219-2.383,5.222,0.022C26.976,8.875,26.956,8.888,26.909,8.848z"/>
	</g>
</g>
<g id="Services" display="none">
	<g display="inline">
		<g>
			<path d="M27.983,3.71l-0.027,0.353l-0.215,2.214l-2.761-0.211l0.227-2.363l0.026-0.337c-0.493,0.136-0.965,0.377-1.379,0.732
				c-1.031,0.885-1.438,2.227-1.179,3.47L9.651,20.59c-1.691-0.582-3.64-0.12-4.875,1.32c-1.617,1.885-1.399,4.722,0.485,6.339
				c0.518,0.443,1.107,0.745,1.722,0.915l-0.032-0.42l0,0l-0.283-2.866l3.449-0.264l0.269,2.68c0,0,0.001,0,0.001-0.001l0.034,0.441
				c0.434-0.248,0.835-0.569,1.179-0.971c1.077-1.254,1.336-2.931,0.835-4.389l13.025-13.026c1.056,0.22,2.198-0.031,3.08-0.787
				c1.508-1.294,1.682-3.565,0.389-5.074C28.651,4.165,28.33,3.909,27.983,3.71z"/>
		</g>
		<g>
			<path d="M1.118,10.704c0.306-0.308,0.803-0.308,1.11-0.002l0.09,0.089l2.618-3.126c0,0,3.072-3.342,6.862-4.795
				c4.621-1.772,7.781-2.291,8.23-1.924c0.448,0.367-0.101,0.958-1.405,1.407c-1.303,0.45-2.777,1.017-4.378,2.43
				c-1.445,1.274-1.684,1.959-1.338,2.808c0.076,0.185,0.608,1.038,1.128,1.698l-2.949,2.949c-0.804-0.725-2.3-1.867-3.257-1.333
				l-0.36,0.183c-0.552,0.36-1.824,1.425-2.686,2.162l0.085,0.086c0.308,0.306,0.308,0.802,0.001,1.11l-0.681,0.683
				c-0.306,0.307-0.804,0.308-1.11,0.001l-2.641-2.634c-0.307-0.306-0.307-0.804-0.001-1.11L1.118,10.704z"/>
			<path d="M14.607,9.924l-2.91,2.911l0.024,0.025l12.83,13.297l1.179,1.211c0.221,0.22,0.509,0.332,0.793,0.332
				c0.271,0,0.537-0.1,0.74-0.303l2.033-2.035c0.415-0.415,0.401-1.1-0.03-1.531l-1.213-1.166L14.633,9.948L14.607,9.924z"/>
		</g>
	</g>
</g>
</svg>
