<?xml version="1.0" encoding="utf-8"?>
<!-- Generator: Adobe Illustrator 17.0.0, SVG Export Plug-In . SVG Version: 6.00 Build 0)  -->
<!DOCTYPE svg PUBLIC "-//W3C//DTD SVG 1.1//EN" "http://www.w3.org/Graphics/SVG/1.1/DTD/svg11.dtd">
<svg version="1.1" xmlns="http://www.w3.org/2000/svg" xmlns:xlink="http://www.w3.org/1999/xlink" x="0px" y="0px"
	 width="33.333px" height="39.378px" viewBox="0 0 33.333 39.378" enable-background="new 0 0 33.333 39.378" xml:space="preserve">
<g id="entertain" display="none">
	<g display="inline">
		<path fill="#2E2E2E" d="M17.076,13.231c-0.036-0.156-0.128-0.279-0.268-0.339c-0.809-0.347-3.897-1.441-8.554-0.269
			c-4.656,1.171-6.859,3.596-7.407,4.286c-0.094,0.119-0.117,0.27-0.075,0.426c0.399,1.467,2.551,9.26,3.93,11.837
			c1.526,2.85,6.249,5.557,8.945,4.878c2.697-0.677,5.576-5.298,5.571-8.53C19.214,22.597,17.419,14.713,17.076,13.231z
			 M3.34,20.842c0,0,2.047-2.622,2.935-2.846c0.887-0.224,2.854,1.119,2.854,1.119s-1.765-0.732-2.744-0.486
			C5.406,18.876,3.34,20.842,3.34,20.842z M5.245,23.009c-0.11-0.439,0.679-1.475,1.662-1.723C7.89,21.038,8.72,21.41,8.83,21.849
			C8.387,22.568,6.541,22.756,5.245,23.009z M12.572,29.825c-3.077,0.628-5.195-2.573-5.589-3.174
			c3.781,2.564,6.903,0.125,8.363-0.549C15.343,27.94,13.827,29.57,12.572,29.825z M11.391,25.085
			c0.52-0.13,0.671-0.514,0.695-0.422c0.023,0.09-0.094,0.619-0.612,0.749c-0.52,0.131-0.871-0.281-0.896-0.371
			C10.556,24.951,10.872,25.216,11.391,25.085z M12.114,21.023c-0.11-0.44,0.446-1.159,1.429-1.406
			c0.983-0.248,2.168,0.291,2.279,0.731C14.56,20.739,12.845,21.446,12.114,21.023z M12.744,17.03
			c-0.979,0.247-2.187,1.726-2.187,1.726s1.098-2.113,1.985-2.336c0.886-0.224,3.931,1.117,3.931,1.117S13.724,16.783,12.744,17.03z
			"/>
		<path fill="#2E2E2E" d="M32.497,10.382c-0.53-0.705-2.66-3.194-7.278-4.504c-4.621-1.31-7.74-0.308-8.559,0.015
			c-0.142,0.056-0.237,0.176-0.278,0.331c-0.179,0.682-0.711,2.73-1.239,5.023c-0.02,0.075,0.04,0.12,0.072,0.126
			c1.122,0.196,1.895,0.483,2.261,0.641c0.285,0.123,0.496,0.363,0.593,0.669c0.004,0.014,0.026,0.039,0.054,0.034
			c1.913-0.443,2.674,0.582,3.029,1.366c0.027,0.061,0.052,0.167-0.067,0.127c-0.915-0.329-1.794-0.335-2.877-1.142
			c-0.018-0.014-0.049-0.016-0.039,0.027c0.266,1.162,0.873,3.875,1.363,6.546c0.004,0.023,0.045,0.095,0.061,0.107
			c0.481,0.381,0.954,0.847,1.416,0.978c0.806,0.228,2.176-0.389,2.921,0.019c0.745,0.41,0.227,2.291-0.809,2.418
			c-1.037,0.127-0.874-0.6-2.503-1.061c-0.241-0.069-0.453-0.11-0.643-0.135c-0.017-0.002-0.049,0-0.044,0.039
			c0.193,1.269,0.319,2.403,0.32,3.193c0.001,0.619-0.096,1.298-0.281,1.999c-0.012,0.054,0.036,0.068,0.062,0.07
			c2.742,0.123,6.792-2.212,8.244-4.741c1.455-2.535,3.839-10.26,4.28-11.716C32.603,10.657,32.587,10.504,32.497,10.382z
			 M17.559,10.23c-0.067,0.01-0.076-0.012-0.014-0.033c3.183-1.068,2.894,1.726,4.782,2.921c0.073,0.046,0.059,0.074-0.019,0.043
			C20.041,12.271,20.613,9.777,17.559,10.23z M22.525,18.222c-0.026,0.09-0.389,0.49-0.904,0.344
			c-0.516-0.146-0.615-0.678-0.59-0.768c0.025-0.089,0.166,0.298,0.682,0.443C22.228,18.388,22.55,18.133,22.525,18.222z
			 M27.786,15.63c-1.587,0.248-2.384-0.274-3.422-0.493c-0.122-0.027-0.046-0.104,0.01-0.142c0.737-0.497,1.977-0.985,3.431,0.566
			C27.823,15.581,27.853,15.619,27.786,15.63z M29.454,13.602c-2.361-1.989-3.185,0.434-5.581,0.003
			c-0.083-0.015-0.081-0.047,0.005-0.047c2.236-0.027,3.455-2.557,5.604,0.023C29.525,13.631,29.504,13.645,29.454,13.602z"/>
	</g>
</g>
<g id="travel">
	<path fill="#2E2E2E" d="M27.644,32.652l-1.901,1.901l-5.748-14.9c-3.137,2.837-6.549,5.775-9.888,8.585l0.228,6.556l-1.371,1.37
		l-1.925-5.359l-1.053,0.614l-0.762-0.479l-0.479-0.763l0.614-1.05L0,27.199l1.37-1.372l6.554,0.228
		c2.81-3.339,5.749-6.749,8.586-9.886L1.609,10.419L3.51,8.52l18.09,2.235c5.255-5.321,9.536-8.66,11.002-7.195
		c1.466,1.466-1.873,5.748-7.195,11.003L27.644,32.652L27.644,32.652z"/>
</g>
<g id="service" display="none">
	<g display="inline">
		<g>
			<path fill="#2E2E2E" d="M30.609,7.564L30.58,7.942L30.35,10.32l-2.966-0.226l0.243-2.537l0.028-0.362
				c-0.53,0.146-1.037,0.405-1.481,0.786c-1.107,0.95-1.544,2.391-1.266,3.726L10.922,25.692c-1.816-0.625-3.909-0.129-5.236,1.418
				c-1.736,2.024-1.503,5.071,0.521,6.808c0.556,0.476,1.189,0.8,1.85,0.982l-0.035-0.451l0,0l-0.304-3.078l3.704-0.283l0.289,2.878
				c0,0,0.001,0,0.001-0.001l0.036,0.474c0.466-0.266,0.897-0.611,1.266-1.043c1.156-1.347,1.434-3.147,0.897-4.714l13.989-13.99
				c1.134,0.237,2.361-0.033,3.307-0.845c1.619-1.389,1.807-3.829,0.417-5.449C31.328,8.053,30.982,7.777,30.609,7.564z"/>
		</g>
		<g>
			<path fill="#2E2E2E" d="M1.758,15.075c0.329-0.331,0.863-0.331,1.192-0.002l0.096,0.096l2.811-3.357c0,0,3.299-3.589,7.369-5.15
				c4.962-1.903,8.357-2.46,8.839-2.066c0.481,0.394-0.108,1.029-1.509,1.511c-1.4,0.483-2.982,1.092-4.702,2.609
				c-1.552,1.368-1.809,2.104-1.436,3.015c0.081,0.199,0.653,1.115,1.211,1.824l-3.167,3.167c-0.863-0.779-2.47-2.005-3.498-1.432
				l-0.387,0.196c-0.593,0.386-1.959,1.531-2.884,2.322l0.091,0.093c0.33,0.329,0.33,0.862,0.001,1.192l-0.732,0.734
				c-0.329,0.33-0.863,0.33-1.192,0.001l-2.837-2.829c-0.33-0.329-0.33-0.864-0.001-1.192L1.758,15.075z"/>
			<path fill="#2E2E2E" d="M16.244,14.238l-3.125,3.126l0.026,0.027l13.779,14.281l1.266,1.301c0.238,0.236,0.547,0.357,0.851,0.357
				c0.291,0,0.577-0.108,0.795-0.325l2.184-2.185c0.446-0.446,0.431-1.182-0.032-1.644l-1.303-1.252L16.273,14.263L16.244,14.238z"
				/>
		</g>
	</g>
</g>
<g id="shop" display="none">
	<path display="inline" fill="#2E2E2E" d="M15.708,29.028c-0.735,0-1.39,0.323-1.848,0.828c-0.403,0.445-0.657,1.028-0.657,1.677
		c0,1.382,1.121,2.504,2.504,2.504c1.383,0,2.503-1.122,2.503-2.504c0-0.649-0.252-1.232-0.656-1.677
		C17.098,29.35,16.444,29.028,15.708,29.028z M24.625,29.028c-0.735,0-1.39,0.323-1.847,0.828c-0.404,0.445-0.657,1.028-0.657,1.677
		c0,1.382,1.12,2.504,2.503,2.504c1.382,0,2.504-1.122,2.504-2.504c0-0.649-0.253-1.232-0.657-1.677
		C26.015,29.35,25.36,29.028,24.625,29.028z M32.848,12.323c-0.278-0.322-0.681-0.507-1.106-0.507H10.146
		C9.621,8.959,9.223,6.799,9.174,6.534c-0.128-0.691-0.73-1.193-1.433-1.193h-6.15c-0.806,0-1.457,0.653-1.457,1.457
		c0,0.805,0.652,1.458,1.457,1.458h4.935c1.345,7.298,3.589,19.519,3.718,20.361c0.109,0.712,0.721,1.237,1.441,1.237h0.836
		c0.603-1.145,1.805-1.927,3.187-1.927s2.583,0.782,3.187,1.927h2.541c0.605-1.145,1.806-1.927,3.188-1.927s2.584,0.782,3.187,1.927
		h0.557c0.806,0,1.458-0.653,1.458-1.458c0-0.805-0.653-1.458-1.458-1.458H12.911c-0.13-0.73-0.312-1.73-0.524-2.898h17.936
		c0.72,0,1.333-0.526,1.442-1.238l1.418-9.311C33.247,13.073,33.124,12.646,32.848,12.323z M29.07,21.127H11.856
		c-0.107-0.576-0.214-1.167-0.325-1.767H29.34L29.07,21.127z M29.784,16.444H10.998c-0.107-0.578-0.212-1.15-0.316-1.713h19.363
		L29.784,16.444z"/>
</g>
</svg>
