<?xml version="1.0" encoding="utf-8"?>
<!-- Generator: Adobe Illustrator 17.0.0, SVG Export Plug-In . SVG Version: 6.00 Build 0)  -->
<!DOCTYPE svg PUBLIC "-//W3C//DTD SVG 1.1//EN" "http://www.w3.org/Graphics/SVG/1.1/DTD/svg11.dtd">
<svg version="1.1" id="Layer_1" xmlns="http://www.w3.org/2000/svg" xmlns:xlink="http://www.w3.org/1999/xlink" x="0px" y="0px"
	 width="34px" height="34px" viewBox="0 0 34 34" enable-background="new 0 0 34 34" xml:space="preserve">
<g>
	<rect x="0.014" y="0.013" fill="#58595B" width="33.973" height="33.973"/>
	<g>
		<g>
			<path fill="#FFFFFF" d="M26.843,11.174c-0.719,0.347-1.481,0.571-2.291,0.675c0.824-0.531,1.457-1.366,1.756-2.367
				c-0.771,0.488-1.624,0.838-2.533,1.042c-0.724-0.836-1.762-1.358-2.903-1.358c-2.199,0-3.981,1.917-3.981,4.286
				c0,0.333,0.034,0.662,0.1,0.971c-3.302-0.17-6.239-1.883-8.204-4.471c-0.341,0.632-0.537,1.366-0.537,2.155
				c0,1.483,0.702,2.803,1.772,3.561c-0.654-0.027-1.268-0.21-1.804-0.533c0,0.018,0,0.04,0,0.058c0,2.072,1.372,3.802,3.192,4.203
				c-0.333,0.097-0.686,0.141-1.052,0.141c-0.255,0-0.498-0.017-0.744-0.076c0.504,1.708,1.976,2.95,3.717,2.975
				c-1.362,1.155-3.078,1.833-4.943,1.833c-0.323,0-0.64-0.018-0.951-0.059c1.761,1.221,3.85,1.933,6.103,1.933
				c7.321,0,11.326-6.532,11.326-12.194c0-0.181-0.004-0.365-0.013-0.549C25.633,12.788,26.309,12.031,26.843,11.174z"/>
		</g>
	</g>
</g>
</svg>
