<?xml version="1.0" encoding="utf-8"?>
<!-- Generator: Adobe Illustrator 17.0.0, SVG Export Plug-In . SVG Version: 6.00 Build 0)  -->
<!DOCTYPE svg PUBLIC "-//W3C//DTD SVG 1.1//EN" "http://www.w3.org/Graphics/SVG/1.1/DTD/svg11.dtd">
<svg version="1.1" id="Layer_1" xmlns="http://www.w3.org/2000/svg" xmlns:xlink="http://www.w3.org/1999/xlink" x="0px" y="0px"
	 width="34px" height="34px" viewBox="0 0 34 34" enable-background="new 0 0 34 34" xml:space="preserve">
<g>
	<rect y="0" fill="#58595B" width="34" height="34"/>
	<g>
		<path fill="#FFFFFF" d="M19.21,19.733c-0.282,0-0.455,0.297-0.52,0.89c-0.013,0.12-0.02,0.545-0.02,1.275
			c0,0.564,0.012,0.916,0.035,1.056c0.067,0.431,0.236,0.646,0.505,0.646c0.251,0,0.403-0.263,0.457-0.791
			c0.013-0.11,0.02-0.488,0.02-1.135c0-0.671-0.005-1.053-0.015-1.146C19.617,19.998,19.463,19.733,19.21,19.733z"/>
		<path fill="#FFFFFF" d="M22.927,19.635c-0.182,0-0.313,0.076-0.389,0.23c-0.092,0.19-0.13,0.461-0.115,0.814l0.004,0.08
			c0.003,0.057,0.005,0.111,0.005,0.165h0.999v-0.244c0-0.334-0.023-0.569-0.07-0.709C23.289,19.747,23.145,19.635,22.927,19.635z"
			/>
		<path fill="#FFFFFF" d="M23.174,14.884h-12.2c-1.702,0-3.082,1.38-3.082,3.083v5.954c0,1.702,1.38,3.083,3.082,3.083h12.2
			c1.702,0,3.082-1.381,3.082-3.083v-5.954C26.256,16.264,24.876,14.884,23.174,14.884z M13.332,18.115H12.06v6.436h-1.103v-6.436
			H9.683v-1.273h3.648V18.115z M16.782,24.551h-1.011v-0.576c-0.213,0.486-0.525,0.73-0.936,0.73c-0.662,0-0.993-0.465-0.993-1.396
			v-4.546h0.995v3.782c0,0.311,0.018,0.532,0.054,0.665c0.063,0.231,0.191,0.345,0.383,0.345c0.207,0,0.345-0.125,0.414-0.374
			c0.038-0.144,0.057-0.384,0.057-0.721v-3.697h1.037V24.551z M20.594,23.615c-0.17,0.726-0.516,1.09-1.038,1.09
			c-0.437,0-0.738-0.253-0.905-0.759v0.606h-0.98v-7.708h1.032v2.41c0.172-0.43,0.464-0.644,0.875-0.644
			c0.523,0,0.867,0.373,1.029,1.12c0.083,0.378,0.124,1.029,0.124,1.956C20.729,22.584,20.684,23.228,20.594,23.615z M24.466,21.841
			h-2.025c-0.007,0.064-0.011,0.187-0.011,0.37c0,0.431,0.018,0.738,0.053,0.922c0.075,0.378,0.229,0.565,0.462,0.565
			c0.346,0,0.521-0.378,0.521-1.134h0.969c0,0.027,0.002,0.064,0.005,0.113c0.002,0.048,0.003,0.086,0.003,0.112
			c0,0.667-0.123,1.153-0.369,1.458c-0.247,0.305-0.628,0.457-1.147,0.457c-0.536,0-0.922-0.185-1.158-0.556
			c-0.188-0.293-0.307-0.721-0.358-1.285c-0.023-0.247-0.035-0.712-0.035-1.395c0-0.55,0.011-0.942,0.035-1.175
			c0.046-0.473,0.147-0.834,0.303-1.08c0.258-0.403,0.67-0.605,1.24-0.605c0.549,0,0.951,0.217,1.205,0.654
			c0.206,0.353,0.308,1.066,0.308,2.139V21.841z"/>
	</g>
	<g>
		<path fill="#FFFFFF" d="M12.902,14.012v-3.286l-1.563-4.466h1.231l0.902,2.916l0.89-2.916h1.196l-1.535,4.466v3.286H12.902z"/>
		<path fill="#FFFFFF" d="M15.941,11.104c0-1.002,0.077-1.714,0.228-2.133c0.227-0.623,0.676-0.935,1.347-0.935
			c0.67,0,1.121,0.312,1.35,0.935c0.153,0.416,0.228,1.126,0.228,2.133c0,1.006-0.076,1.716-0.228,2.132
			c-0.23,0.621-0.68,0.931-1.35,0.931c-0.67,0-1.119-0.312-1.347-0.935C16.017,12.816,15.941,12.106,15.941,11.104z M17.003,11.179
			c0,0.721,0.004,1.113,0.012,1.177c0.054,0.519,0.217,0.779,0.492,0.779c0.274,0,0.442-0.223,0.504-0.669
			c0.013-0.097,0.019-0.461,0.019-1.091v-0.568c0-0.59-0.008-0.945-0.023-1.066c-0.065-0.442-0.229-0.664-0.493-0.664
			c-0.256,0-0.417,0.195-0.481,0.584c-0.021,0.123-0.031,0.45-0.031,0.979V11.179z"/>
		<path fill="#FFFFFF" d="M22.811,8.191v5.822h-1.017v-0.579c-0.214,0.489-0.528,0.733-0.941,0.733
			c-0.666,0-0.999-0.468-0.999-1.403V8.191h1.001v3.803c0,0.312,0.018,0.535,0.054,0.669c0.064,0.232,0.192,0.348,0.385,0.348
			c0.208,0,0.347-0.127,0.416-0.378c0.039-0.144,0.058-0.386,0.058-0.725V8.191H22.811z"/>
	</g>
</g>
</svg>
